<?xml version="1.0" encoding="UTF-8" standalone="no"?>
<!-- Created with Inkscape (http://www.inkscape.org/) -->

<svg
   xmlns:dc="http://purl.org/dc/elements/1.1/"
   xmlns:cc="http://creativecommons.org/ns#"
   xmlns:rdf="http://www.w3.org/1999/02/22-rdf-syntax-ns#"
   xmlns:svg="http://www.w3.org/2000/svg"
   xmlns="http://www.w3.org/2000/svg"
   xmlns:xlink="http://www.w3.org/1999/xlink"
   xmlns:sodipodi="http://sodipodi.sourceforge.net/DTD/sodipodi-0.dtd"
   xmlns:inkscape="http://www.inkscape.org/namespaces/inkscape"
   width="32"
   height="32"
   id="svg2"
   version="1.1"
   inkscape:version="0.48.3.1 r9886"
   sodipodi:docname="_favicon.svg">
  <defs
     id="defs4">
    <linearGradient
       id="linearGradient3879">
      <stop
         style="stop-color:#88005f;stop-opacity:1;"
         offset="0"
         id="stop3881" />
      <stop
         style="stop-color:#14000e;stop-opacity:1;"
         offset="1"
         id="stop3883" />
    </linearGradient>
    <radialGradient
       inkscape:collect="always"
       xlink:href="#linearGradient3879"
       id="radialGradient3893"
       cx="13.921733"
       cy="12.605259"
       fx="13.921733"
       fy="12.605259"
       r="12.462529"
       gradientTransform="matrix(5.5532916,-0.31763434,0.04825551,0.84366518,-64.029931,11.0231)"
       gradientUnits="userSpaceOnUse"
       spreadMethod="pad" />
  </defs>
  <sodipodi:namedview
     id="base"
     pagecolor="#ffffff"
     bordercolor="#666666"
     borderopacity="1.0"
     inkscape:pageopacity="0.0"
     inkscape:pageshadow="2"
     inkscape:zoom="10.21875"
     inkscape:cx="-2.1576468"
     inkscape:cy="10.727267"
     inkscape:document-units="px"
     inkscape:current-layer="g3800"
     showgrid="false"
     inkscape:window-width="1600"
     inkscape:window-height="824"
     inkscape:window-x="0"
     inkscape:window-y="24"
     inkscape:window-maximized="1" />
  <metadata
     id="metadata7">
    <rdf:RDF>
      <cc:Work
         rdf:about="">
        <dc:format>image/svg+xml</dc:format>
        <dc:type
           rdf:resource="http://purl.org/dc/dcmitype/StillImage" />
        <dc:title></dc:title>
      </cc:Work>
    </rdf:RDF>
  </metadata>
  <g
     inkscape:label="Layer 1"
     inkscape:groupmode="layer"
     id="layer1"
     transform="translate(0,-1020.3622)"
     style="display:inline">
    <rect
       style="fill:#e84141;fill-opacity:1"
       id="rect3014"
       width="32"
       height="32"
       x="0"
       y="1020.3622" />
    <g
       id="g3800"
       transform="translate(0,0.836748)">
      <path
         inkscape:connector-curvature="0"
         id="path3012"
         d="m 9.2901727,1047.9294 c -0.4418981,-0.2829 -0.7229127,-0.8441 -0.7729489,-1.5434 l -0.042729,-0.5972 -0.9518404,-0.4869 c -3.2411365,-1.6578 -5.3032685,-4.4426 -5.5240319,-7.4599 -0.076687,-1.0482 -0.3417503,-0.9793 3.765336,-0.9793 2.3258454,0 3.4288609,-0.029 3.46751,-0.091 0.1437037,-0.2326 0.1411297,-1.1974 -0.00579,-2.1551 -0.1419713,-0.9256 -0.1453948,-1.0973 -0.036139,-1.8139 0.1502746,-0.9855 0.1485934,-2.0167 -0.00501,-3.0375 -0.1054654,-0.7013 -0.1024038,-0.878 0.028267,-1.6317 0.1487504,-0.8582 0.1862339,-1.6223 0.09166,-1.8687 -0.043587,-0.1137 -0.2240814,-0.1358 -1.1043961,-0.1358 -1.414526,0 -1.8003869,-0.061 -2.0637609,-0.324 -0.2816833,-0.2817 -0.2734146,-0.508 0.049967,-1.3676 0.17099,-0.4545 -0.2735912,-0.4178 11.2024895,-0.9258 5.902359,-0.2613 11.407833,-0.5062 12.234384,-0.5443 0.826546,-0.038 1.589765,-0.039 1.696033,0 0.191004,0.067 0.193218,0.086 0.193218,1.6604 0,1.5752 -0.0024,1.5938 -0.193218,1.6595 -0.106267,0.037 -2.762683,0.037 -5.903138,0 -3.367037,-0.039 -5.741643,-0.033 -5.787228,0.012 -0.147376,0.1474 -0.156251,0.9094 -0.0191,1.6412 0.176232,0.9405 0.174537,1.5414 -0.0073,2.6213 -0.138031,0.8192 -0.137989,0.917 9.43e-4,1.7174 0.18411,1.062 0.184831,1.5759 0.0039,2.6212 -0.108405,0.6255 -0.124482,0.9613 -0.06577,1.374 l 0.0777,0.5462 3.520888,0.043 c 1.936484,0.023 3.569189,0.075 3.62823,0.1125 0.289719,0.1875 0.03467,2.0076 -0.449629,3.2087 -0.832742,2.0651 -2.884552,4.1399 -5.17806,5.2358 -0.364472,0.1743 -0.691069,0.3586 -0.725769,0.4098 -0.03471,0.051 -0.06368,0.2709 -0.06441,0.4882 -0.0014,0.4859 -0.131898,0.8915 -0.404051,1.2581 -0.412646,0.5559 -0.215506,0.5367 -5.539859,0.5352 -4.7612846,0 -4.8390214,-0.011 -5.1159457,-0.1815 z m 10.0073493,-0.6972 c 0.297777,-0.318 0.483339,-1.0134 0.299783,-1.1236 -0.03543,-0.02 -0.334914,0.023 -0.66553,0.1002 -0.824823,0.1898 -8.085283,0.2103 -9.0017059,0.026 -0.7268962,-0.1467 -0.8208464,-0.087 -0.6670916,0.4264 0.058784,0.1964 0.1987721,0.4487 0.31108,0.561 l 0.2041951,0.2042 4.6691354,0 4.669136,0 0.180998,-0.1931 z m -1.364181,-1.6121 c 1.089954,-0.1148 1.711111,-0.2856 2.651329,-0.7289 1.28726,-0.607 2.206964,-1.2576 3.199057,-2.2631 0.933425,-0.9459 1.789118,-2.1916 1.687457,-2.4566 -0.04492,-0.117 -1.253027,-0.1314 -11.0401,-0.1314 -7.4336943,0 -11.0073146,0.028 -11.0442203,0.088 -0.071132,0.1151 0.4714318,1.0981 0.9476192,1.7169 1.3973284,1.8161 4.1798329,3.5059 6.2006721,3.7659 0.814462,0.1046 6.423587,0.1115 7.398186,0.011 z m 8.080138,-6.9032 c 0.04325,-0.1136 0.09058,-0.3939 0.10522,-0.6226 l 0.02659,-0.4159 -11.556459,-0.042 c -6.3560592,-0.023 -11.6262697,-0.029 -11.7115885,-0.013 -0.1356881,0.027 -0.1496813,0.098 -0.1117108,0.5707 0.023873,0.2975 0.069787,0.5835 0.1020229,0.6356 0.042304,0.069 3.2610943,0.095 11.5629584,0.095 l 11.504342,0 0.07862,-0.2068 z m -15.421882,-2.4339 c 0.02755,-0.3187 0.05217,-1.1206 0.05471,-1.7819 0.0025,-0.6612 0.0061,-1.3182 0.008,-1.4598 0.0028,-0.2357 -0.01389,-2.8791 -0.03194,-4.9808 -0.0039,-0.4724 9.43e-4,-1.2449 0.0116,-1.717 0.02622,-1.1832 0.0048,-1.2458 -0.431223,-1.2458 l -0.3529262,0 0.075071,0.4509 c 0.1091292,0.6554 0.088721,2.1492 -0.040057,2.9328 -0.097093,0.5909 -0.092629,0.794 0.034368,1.5684 0.1530442,0.9331 0.1401232,1.7303 -0.047695,2.9434 -0.08233,0.5318 -0.075027,0.7819 0.043587,1.4913 0.078378,0.4686 0.1355032,1.1664 0.1269562,1.5508 -0.0086,0.3842 -0.0117,0.7275 -0.0069,0.7629 0.0048,0.036 0.120606,0.065 0.257507,0.065 0.245097,0 0.249676,-0.011 0.299005,-0.5797 z m 1.638158,-0.2147 c -0.03967,-0.4367 -0.06706,-1.2774 -0.06089,-1.8677 0.01414,-1.3546 0.0179,-3.3955 0.009,-4.895 -0.0039,-0.6376 0.01881,-1.6616 0.05026,-2.2757 0.03142,-0.6139 0.02531,-1.2901 -0.01365,-1.5028 l -0.07079,-0.3864 -0.41645,-0.027 -0.416456,-0.027 0.07492,0.4129 c 0.09844,0.5427 0.09045,2.2948 -0.01442,3.1612 -0.05365,0.4432 -0.05363,0.9308 5.2e-5,1.3739 0.104831,0.8656 0.10394,2.7073 -0.0019,3.6067 -0.0444,0.3779 -0.05689,0.8996 -0.02779,1.1594 0.02912,0.2598 0.08068,0.7814 0.11458,1.1593 0.08252,0.9199 0.07268,0.9016 0.486552,0.9016 l 0.358911,0 -0.07211,-0.7943 z m 1.296072,0.7016 c 0.03151,-0.05 0.05933,-2.6883 0.06184,-5.8608 l 0.0048,-5.7684 -0.32103,0 -0.32103,0 -0.03905,1.6317 c -0.02148,0.8973 -0.03853,2.0566 -0.03787,2.5762 0.0028,2.2089 -0.0039,4.093 -0.01767,4.8949 -0.01347,0.7881 0.06239,1.9537 0.157889,2.426 0.0276,0.1364 0.10021,0.1932 0.24706,0.1932 0.114394,0 0.233754,-0.041 0.265255,-0.092 z m 1.244239,0.071 c 0.0019,-0.012 0.01828,-0.1567 0.03662,-0.322 0.01834,-0.1653 0.08064,-0.693 0.138395,-1.1727 0.100679,-0.8362 0.08853,-1.2788 -0.08032,-2.9284 -0.03991,-0.3899 -0.0401,-0.989 -3.44e-4,-1.3311 0.153335,-1.3211 0.182253,-2.2974 0.08299,-2.8019 -0.110898,-0.5637 -0.135578,-2.0648 -0.04517,-2.7464 0.0576,-0.4345 0.05515,-0.4409 -0.169428,-0.4409 -0.301044,0 -0.387485,0.2392 -0.454355,1.2572 -0.03714,0.5658 -0.007,1.1137 0.10306,1.8735 0.140386,0.969 0.14392,1.1559 0.03609,1.9128 -0.152908,1.0737 -0.153242,2.3378 -9.43e-4,3.3712 0.108349,0.7348 0.10482,0.9249 -0.03605,1.9423 -0.08588,0.6203 -0.131965,1.1908 -0.102404,1.2678 0.04206,0.1091 0.477266,0.2146 0.491761,0.1186 z m 1.581336,-0.8373 c 0.04498,-0.4487 0.07588,-1.2408 0.06868,-1.7603 -0.01222,-0.8809 -0.01742,-2.3545 -0.01752,-4.9378 -1.9e-5,-0.5904 -0.01035,-1.7788 -0.02306,-2.6407 l -0.02301,-1.5673 -0.320886,0 c -0.428114,0 -0.459511,0.1325 -0.427331,1.8034 0.01408,0.7321 0.02506,1.8527 0.02439,2.4904 -0.0019,1.911 0.0028,3.7543 0.01361,4.9378 0.0055,0.614 -0.02192,1.4377 -0.06093,1.8303 l -0.07093,0.7141 0.377619,-0.028 0.377625,-0.028 0.08176,-0.8157 z m 1.256227,-0.021 c 0.14823,-1.1148 0.149071,-2.3577 0.0024,-3.4573 -0.100166,-0.7506 -0.09713,-0.9794 0.02387,-1.8046 0.173371,-1.1822 0.173615,-1.6459 0.0014,-2.8196 -0.112216,-0.7652 -0.120009,-1.0799 -0.04292,-1.7335 0.127892,-1.0843 0.129568,-1.0697 -0.122645,-1.0697 -0.155677,0 -0.244261,0.067 -0.314154,0.2362 -0.136632,0.3314 -0.135702,2.3218 0.0014,3.2143 0.09131,0.5938 0.09414,0.8993 0.01394,1.5027 -0.189563,1.4264 -0.198729,2.0572 -0.04578,3.1518 0.126111,0.9025 0.132747,1.172 0.04488,1.8228 -0.0567,0.4201 -0.122782,1.0051 -0.146846,1.3004 l -0.04373,0.5368 0.255502,0 0.255505,0 0.117044,-0.8803 z m 1.211198,0.1069 c -0.01585,-0.4274 0.0286,-1.0146 0.107325,-1.4169 0.167676,-0.8572 0.168789,-1.2803 0.0056,-2.1331 -0.07084,-0.37 -0.128799,-0.8787 -0.128799,-1.1302 0,-0.2515 0.05796,-0.7602 0.128799,-1.1303 0.07084,-0.3703 0.128797,-0.847 0.128797,-1.0595 0,-0.2126 -0.05796,-0.6894 -0.128797,-1.0596 -0.162507,-0.8492 -0.162478,-1.3835 8.5e-5,-2.2332 0.0709,-0.3704 0.107247,-0.7086 0.08079,-0.7514 -0.02641,-0.042 -0.159966,-0.078 -0.296728,-0.078 -0.21796,0 -0.257106,0.039 -0.316967,0.3221 -0.03758,0.1771 -0.05548,0.9015 -0.03981,1.6101 0.01566,0.7085 0.02683,1.7808 0.02483,2.383 -0.0066,1.967 -0.0039,3.7367 0.0075,4.8519 0.0061,0.6022 -0.02034,1.436 -0.05878,1.8528 l -0.06992,0.7577 0.291596,-0.028 0.2916,-0.028 -0.02707,-0.7299 z m 12.006669,-10.7315 c 0,-0.1487 -0.04608,-0.2625 -0.107346,-0.2652 -0.613914,-0.027 -8.586756,0.04 -9.596561,0.08 -1.102396,0.043 -1.33107,0.076 -1.33107,0.1817 0,0.1516 1.469526,0.1992 7.406744,0.2391 l 3.628229,0.024 0,-0.2606 z m -4.894888,-1.0385 c 2.574109,-0.05 4.728506,-0.1069 4.787546,-0.1264 0.146908,-0.048 0.13608,-0.464 -0.01356,-0.5214 -0.118511,-0.046 -11.55413,0.4275 -12.872662,0.5324 -0.368758,0.029 -0.650314,0.073 -0.625677,0.098 0.07891,0.079 2.209909,0.1746 3.142468,0.1411 0.49593,-0.018 3.007781,-0.073 5.581894,-0.1238 z"
         style="fill:#ffd42a" />
      <path
         inkscape:connector-curvature="0"
         id="path3796"
         d="M 9.2901727,27.567161 C 8.8482746,27.284265 8.56726,26.723148 8.5172238,26.023757 L 8.4744921,25.426569 7.5226518,24.939711 c -3.2411366,-1.657853 -5.3032685,-4.442616 -5.524032,-7.459952 -0.076687,-1.048197 -0.3417502,-0.979282 3.765336,-0.979282 2.3258454,0 3.428861,-0.02895 3.4675101,-0.09129 5.6516661,0.07571 5.6287861,0.0668 10.3876511,0.04899 l 3.520888,0.04342 c 1.936485,0.02338 3.56919,0.07459 3.628231,0.112557 0.289718,0.187484 0.03467,2.007549 -0.449629,3.208606 -0.832742,2.065108 -2.884552,4.139902 -5.178061,5.235861 -0.364471,0.174235 -0.691068,0.358602 -0.725768,0.409815 -0.03471,0.05121 -0.06368,0.270872 -0.06441,0.488193 -0.0014,0.485856 -0.131898,0.891441 -0.404052,1.258059 -0.412645,0.555883 -0.215505,0.536734 -5.539859,0.535176 -4.7612843,0 -4.8390212,-0.01113 -5.1159454,-0.181473 z"
         style="fill:url(#radialGradient3893);fill-opacity:1.0"
         transform="translate(0,1020.3622)" />
      <path
         transform="translate(0,1020.3622)"
         sodipodi:nodetypes="cccsssccccccccsccccccccccccccccscsccccccccccccscc"
         style="fill:#000000"
         d="M 9.2901727,27.567161 C 8.8482746,27.284265 8.56726,26.723148 8.5172238,26.023757 L 8.4744921,25.426569 7.5226518,24.939711 c -3.2411366,-1.657853 -5.3032685,-4.442616 -5.524032,-7.459952 -0.076687,-1.048197 -0.3417502,-0.979282 3.765336,-0.979282 2.3258454,0 3.428861,-0.02895 3.4675101,-0.09129 5.6516661,0.07571 5.6287861,0.0668 10.3876511,0.04899 l 3.520888,0.04342 c 1.936485,0.02338 3.56919,0.07459 3.628231,0.112557 0.289718,0.187484 0.03467,2.007549 -0.449629,3.208606 -0.832742,2.065108 -2.884552,4.139902 -5.178061,5.235861 -0.364471,0.174235 -0.691068,0.358602 -0.725768,0.409815 -0.03471,0.05121 -0.06368,0.270872 -0.06441,0.488193 -0.0014,0.485856 -0.131898,0.891441 -0.404052,1.258059 -0.412645,0.555883 -0.215505,0.536734 -5.539859,0.535176 -4.7612843,0 -4.8390212,-0.01113 -5.1159454,-0.181473 z M 19.297522,26.869996 c 0.297777,-0.317966 0.483339,-1.013349 0.299783,-1.123569 -0.03543,-0.02004 -0.334914,0.02338 -0.66553,0.1002 -0.824823,0.189822 -8.085283,0.210307 -9.0017059,0.02561 -0.7268962,-0.146736 -0.8208464,-0.08684 -0.6670916,0.426404 0.058784,0.196391 0.1987721,0.448671 0.31108,0.561005 l 0.2041951,0.204184 4.6691354,0 4.669136,0 0.180998,-0.193162 z M 17.933341,25.2579 c 1.089954,-0.114784 1.711111,-0.285568 2.651329,-0.728895 1.28726,-0.606985 2.206964,-1.257613 3.199057,-2.263057 0.933425,-0.945994 1.789118,-2.191694 1.687457,-2.456666 -0.04492,-0.11701 -1.253027,-0.131372 -11.0401,-0.131372 -7.4336943,0 -11.0073146,0.02783 -11.0442203,0.08795 -0.071132,0.115118 0.4714318,1.098184 0.9476192,1.716971 1.3973284,1.816057 4.1798329,3.505864 6.2006721,3.765825 0.814462,0.104653 6.423587,0.111556 7.398186,0.01113 z m 8.080138,-6.903178 c 0.04325,-0.113671 0.09058,-0.393895 0.10522,-0.622572 l 0.02659,-0.415939 -11.556459,-0.04231 c -6.3560592,-0.02338 -11.6262697,-0.02895 -11.7115885,-0.01336 -0.1356881,0.02672 -0.1496813,0.09797 -0.1117108,0.570691 0.023873,0.297481 0.069787,0.583494 0.1020229,0.635598 0.042304,0.06903 3.2610943,0.09463 11.5629584,0.09463 l 11.504342,0 z"
         id="path3784"
         inkscape:connector-curvature="0" />
    </g>
  </g>
</svg>
